<?xml version="1.0" encoding="utf-8"?>
<!-- Generator: Adobe Illustrator 19.0.0, SVG Export Plug-In . SVG Version: 6.00 Build 0)  -->
<svg version="1.1" id="Capa_1" xmlns="http://www.w3.org/2000/svg" xmlns:xlink="http://www.w3.org/1999/xlink" x="0px" y="0px"
	 viewBox="0 0 200 200" style="enable-background:new 0 0 200 200;" xml:space="preserve">
<style type="text/css">
	.st0{fill:none;stroke:#FFFFFF;stroke-width:5;stroke-miterlimit:10;}
	.st1{fill:#FFFFFF;}
</style>
<circle id="XMLID_1429_" class="st0" cx="99.9" cy="100" r="78.4"/>
<g id="XMLID_850_">
	<path id="XMLID_862_" class="st1" d="M137.7,102.2l-8.4-15.4c-0.4-0.8-2.8-5.4-8-5.4h-0.1v-0.8c0-3.9-3.2-7-7-7s-7,3.2-7,7v0.8
		H65.8c-5.9,0-10.6,4.8-10.6,10.6v28.3c0,5.9,4.8,10.6,10.6,10.6h0.8c1,3.9,4.6,6.9,8.8,6.9c4.2,0,7.8-2.9,8.8-6.9h30.2
		c1,3.9,4.6,6.9,8.8,6.9s7.8-2.9,8.8-6.9h1.9c5.9,0,10.6-4.8,10.6-10.6v-10.1C144.5,105.7,141.9,102.7,137.7,102.2z M111.5,80.6
		c0-1.4,1.2-2.6,2.6-2.6c1.4,0,2.6,1.2,2.6,2.6v0.8h-5.2V80.6z M75.4,133.4c-2.6,0-4.6-2.1-4.6-4.6c0-2.6,2.1-4.6,4.6-4.6
		s4.6,2.1,4.6,4.6C80,131.3,78,133.4,75.4,133.4z M123.2,133.4c-2.6,0-4.6-2.1-4.6-4.6c0-2.6,2.1-4.6,4.6-4.6c2.6,0,4.6,2.1,4.6,4.6
		C127.8,131.3,125.8,133.4,123.2,133.4z M140.1,120.3c0,3.4-2.8,6.2-6.2,6.2H132c-1-3.9-4.6-6.9-8.8-6.9c-4.2,0-7.8,2.9-8.8,6.9
		H84.2c-1-3.9-4.6-6.9-8.8-6.9s-7.8,2.9-8.8,6.9h-0.8c-3.4,0-6.2-2.8-6.2-6.2V92.1c0-3.4,2.8-6.2,6.2-6.2h55.4c2.6,0,3.9,2.8,4,2.9
		c0,0.1,0.1,0.1,0.1,0.2l9,16.5c0.4,0.7,1.1,1.2,2,1.2c2.4,0,3.6,1,3.8,3H81.6c-1.2,0-2.2,1-2.2,2.2s1,2.2,2.2,2.2h58.4L140.1,120.3
		L140.1,120.3L140.1,120.3z M109.3,106.6h18c0,0,0,0,0,0c1.2,0,2.2-1,2.2-2.2c0-0.5-0.2-1-0.4-1.3l-6.8-12.9c-0.4-0.7-1.1-1.2-2-1.2
		h-11c-1.2,0-2.2,1-2.2,2.2v13.2C107.1,105.6,108.1,106.6,109.3,106.6z M111.5,93.4h7.4l4.6,8.8h-12.1L111.5,93.4L111.5,93.4z
		 M79.4,103c0,1.2,1,2.2,2.2,2.2c1.2,0,2.2-1,2.2-2.2V100h3.1c1.2,0,2.2-1,2.2-2.2c0-1.2-1-2.2-2.2-2.2h-3.1v-3.1
		c0-1.2-1-2.2-2.2-2.2c-1.2,0-2.2,1-2.2,2.2v3.1h-3.1c-1.2,0-2.2,1-2.2,2.2c0,1.2,1,2.2,2.2,2.2h3.1V103z M73.9,109.6h-7.1
		c-1.2,0-2.2,1-2.2,2.2s1,2.2,2.2,2.2h7.1c1.2,0,2.2-1,2.2-2.2S75.1,109.6,73.9,109.6z M114.1,72.2c1.2,0,2.2-1,2.2-2.2v-2.7
		c0-1.2-1-2.2-2.2-2.2c-1.2,0-2.2,1-2.2,2.2V70C111.9,71.2,112.9,72.2,114.1,72.2z M123.1,76.9c0.4,0,0.8-0.1,1.1-0.3l1.8-1
		c1.1-0.6,1.4-2,0.8-3c-0.6-1.1-2-1.4-3-0.8l-1.8,1c-1.1,0.6-1.4,2-0.8,3C121.5,76.5,122.3,76.9,123.1,76.9z M102.3,75.5l1.8,1
		c0.3,0.2,0.7,0.3,1.1,0.3c0.8,0,1.5-0.4,1.9-1.1c0.6-1.1,0.2-2.4-0.8-3l-1.8-1c-1.1-0.6-2.4-0.2-3,0.8
		C100.9,73.6,101.2,74.9,102.3,75.5z M123.2,126.5c-1.2,0-2.2,1-2.2,2.2c0,1.2,1,2.2,2.2,2.2c1.2,0,2.2-1,2.2-2.2
		C125.4,127.5,124.4,126.5,123.2,126.5z M75.4,126.5c-1.2,0-2.2,1-2.2,2.2c0,1.2,1,2.2,2.2,2.2s2.2-1,2.2-2.2
		C77.6,127.5,76.6,126.5,75.4,126.5z"/>
</g>
</svg>
