<?xml version="1.0" encoding="utf-8"?>
<!-- Generator: Adobe Illustrator 19.0.0, SVG Export Plug-In . SVG Version: 6.00 Build 0)  -->
<svg version="1.1" id="Capa_1" xmlns="http://www.w3.org/2000/svg" xmlns:xlink="http://www.w3.org/1999/xlink" x="0px" y="0px"
	 viewBox="0 0 200 200" style="enable-background:new 0 0 200 200;" xml:space="preserve">
<style type="text/css">
	.st0{fill:none;stroke:#FFFFFF;stroke-width:5;stroke-miterlimit:10;}
	.st1{fill:#FFFFFF;}
</style>
<circle id="XMLID_1434_" class="st0" cx="99.6" cy="100" r="78.4"/>
<circle id="XMLID_1433_" class="st0" cx="99.6" cy="100" r="78.4"/>
<g id="XMLID_856_">
	<g id="XMLID_25_">
		<path id="XMLID_27_" class="st1" d="M130.5,86.7c-1.3,0-2.3,1-2.3,2.3c0,0,0,0,0,0.1v40.2c0,0.4-0.3,0.8-0.8,0.8H71.7
			c-0.4,0-0.8-0.3-0.8-0.8V73.6c0-0.4,0.3-0.8,0.8-0.8h40.2c1.3,0,2.3-1,2.3-2.3c0-1.3-1-2.3-2.3-2.3H71.7c-3,0-5.4,2.4-5.4,5.4l0,0
			v55.7c0,3,2.4,5.4,5.4,5.4h55.7c3,0,5.4-2.4,5.4-5.4V89.1C132.8,87.8,131.8,86.7,130.5,86.7C130.5,86.7,130.5,86.7,130.5,86.7z"/>
		<path id="XMLID_26_" class="st1" d="M93,89.7c-0.7-1.1-2.1-1.4-3.2-0.7c-1,0.6-1.4,1.9-0.8,3l8.6,15.3c0.6,1.1,2.1,1.5,3.2,0.8
			c0.2-0.1,0.4-0.3,0.6-0.5l30.9-35.6c0.9-1,0.8-2.4-0.2-3.3c-1-0.9-2.4-0.8-3.3,0.2l-28.8,33.1L93,89.7z"/>
	</g>
</g>
</svg>
