<?xml version="1.0" encoding="utf-8"?>
<!-- Generator: Adobe Illustrator 19.0.0, SVG Export Plug-In . SVG Version: 6.00 Build 0)  -->
<svg version="1.1" id="Capa_1" xmlns="http://www.w3.org/2000/svg" xmlns:xlink="http://www.w3.org/1999/xlink" x="0px" y="0px"
	 viewBox="0 0 200 200" style="enable-background:new 0 0 200 200;" xml:space="preserve">
<style type="text/css">
	.st0{fill:none;stroke:#FFFFFF;stroke-width:5;stroke-miterlimit:10;}
	.st1{fill:#FFFFFF;}
</style>
<circle id="XMLID_1439_" class="st0" cx="100.2" cy="100" r="78.4"/>
<circle id="XMLID_1438_" class="st0" cx="100.2" cy="100" r="78.4"/>
<path id="XMLID_855_" class="st1" d="M138.4,101.6c0-21.7-17.6-39.4-39.2-39.4c0,0-0.1-0.1-0.1-0.1c0,0,0,0,0,0c0,0,0,0,0,0
	c-21.7,0-39.4,17.7-39.4,39.4s17.7,39.4,39.4,39.4c0,0,0,0,0,0c0,0,0,0,0,0c0,0,0.1,0.1,0.1,0.1
	C120.9,140.8,138.4,123.2,138.4,101.6z M135.1,99.8c-4.7,0-9.1,0-13.2,0c-0.3-14-4.6-25.9-11.1-32.3
	C124.4,72.1,134.4,84.8,135.1,99.8z M97.5,65.6v34.1c-7.4,0-13.2,0-17.9,0C80.1,81.7,87.9,67.1,97.5,65.6z M97.5,103v34.5
	C87.8,136,80,121.2,79.6,103C85,103,91.1,103,97.5,103z M100.8,137.5V103c6.1,0,12.2,0,17.9,0C118.3,121.2,110.4,136,100.8,137.5z
	 M100.8,99.7V65.6c9.6,1.5,17.4,16.1,17.9,34.2C111.9,99.7,106,99.7,100.8,99.7z M87.5,67.4c-6.5,6.5-10.8,18.3-11.2,32.3
	c-7.6,0-11.4,0-13.3,0.1C63.8,84.7,73.8,72,87.5,67.4z M63,103c2.2,0,7,0,13.3,0c0.3,14.2,4.6,26.2,11.2,32.7
	C73.7,131,63.6,118.2,63,103z M110.8,135.7c6.6-6.5,10.8-18.5,11.1-32.6c5,0,9.5,0,13.2,0C134.5,118.2,124.5,131,110.8,135.7z"/>
</svg>
