<?xml version="1.0" encoding="utf-8"?>
<!-- Generator: Adobe Illustrator 19.0.0, SVG Export Plug-In . SVG Version: 6.00 Build 0)  -->
<svg version="1.1" id="Capa_1" xmlns="http://www.w3.org/2000/svg" xmlns:xlink="http://www.w3.org/1999/xlink" x="0px" y="0px"
	 viewBox="0 0 200 200" style="enable-background:new 0 0 200 200;" xml:space="preserve">
<style type="text/css">
	.st0{fill:none;stroke:#FFFFFF;stroke-width:5;stroke-miterlimit:10;}
	.st1{fill:#FFFFFF;}
</style>
<circle id="XMLID_1449_" class="st0" cx="99.9" cy="100" r="78.4"/>
<circle id="XMLID_1443_" class="st0" cx="99.9" cy="100" r="78.4"/>
<g id="XMLID_854_" transform="translate(0,-952.36218)">
	<g id="XMLID_53_">
		<path id="XMLID_59_" class="st1" d="M106.7,1016.9c-1.1,0-2,1-1.9,2.1c0,1,0.8,1.8,1.7,1.9c17.7,2.8,31,17.3,31,34.8
			c0,4.4-0.8,8.5-2.3,12.4c-0.4,1,0.1,2.2,1.1,2.6s2.2-0.1,2.6-1.1c0,0,0,0,0-0.1c1.7-4.3,2.6-9,2.6-13.8
			c0-19.5-14.9-35.7-34.4-38.7C107,1016.9,106.9,1016.9,106.7,1016.9L106.7,1016.9z"/>
		<path id="XMLID_58_" class="st1" d="M130.9,1076.9c-0.6,0-1.1,0.3-1.5,0.7c-6.8,8.1-17.3,13.3-29.1,13.3c-11.8,0-22.2-5.2-29-13.3
			c-0.7-0.9-2-1-2.8-0.3c-0.9,0.7-1,2-0.3,2.8c0,0,0,0,0,0c7.6,9,19.2,14.7,32.1,14.7c13,0,24.6-5.7,32.1-14.7
			c0.7-0.8,0.6-2.1-0.2-2.8C131.9,1077.1,131.4,1076.9,130.9,1076.9z"/>
		<path id="XMLID_57_" class="st1" d="M94.3,1016.8c-0.1,0-0.2,0-0.3,0c-19.6,2.9-34.7,19.2-34.7,38.8c0,4.8,0.9,9.3,2.5,13.5
			c0.4,1,1.5,1.6,2.6,1.2c1-0.4,1.6-1.5,1.2-2.6c0,0,0,0,0,0c-1.4-3.8-2.2-7.8-2.2-12.1c0-17.6,13.5-32.2,31.3-34.8
			c1.1-0.1,1.9-1.2,1.7-2.3C96.1,1017.6,95.3,1016.8,94.3,1016.8z"/>
		<path id="XMLID_56_" class="st1" d="M78.6,1053.8c-0.9,0.1-1.8,0.9-1.9,1.8c-0.1,0.9,0.6,1.9,1.5,2.1l9.3,2.3L57,1076.4
			c-1,0.5-1.4,1.8-0.9,2.7c0.5,0.9,1.8,1.3,2.8,0.8l31.2-16.6l-2.5,9.2c-0.4,1,0.3,2.3,1.3,2.6c1.1,0.3,2.3-0.5,2.5-1.5l3.6-13.5
			c0.4-1.3-0.2-2.4-1.3-2.8l-14.4-3.5C79,1053.8,78.8,1053.8,78.6,1053.8L78.6,1053.8z"/>
		<path id="XMLID_55_" class="st1" d="M121,1053.8c-0.1,0-0.2,0-0.3,0.1l-14.4,3.5c-1.1,0.3-1.7,1.3-1.5,2.4c0,0,0,0,0,0.1l3.7,13.8
			c0.3,1.1,1.4,1.7,2.5,1.4s1.7-1.4,1.4-2.5l0,0l-2.5-9.2l31.1,16.6c1,0.5,2.2,0.2,2.7-0.7c0.5-1,0.2-2.2-0.7-2.7c0,0-0.1,0-0.1-0.1
			l-30.5-16.3l9.3-2.3c1.1-0.3,1.7-1.4,1.4-2.4c-0.2-0.9-1-1.5-1.9-1.5C121.2,1053.8,121.1,1053.8,121,1053.8L121,1053.8z"/>
		<path id="XMLID_54_" class="st1" d="M100.4,1006.9c-1,0-2,1-2,2l0,33.4l-7.2-6.8c-0.8-0.7-2.1-0.7-2.8,0.1
			c-0.7,0.8-0.7,2.1,0.1,2.8l10.6,9.9c0.9,0.9,2.1,0.6,2.8,0l10.5-10.1c0.6-0.5,0.8-1.5,0.5-2.2c-0.3-0.7-1.1-1.3-1.9-1.2
			c-0.5,0-1,0.2-1.4,0.6l-7.1,6.8l0-33.3C102.4,1007.9,101.4,1006.9,100.4,1006.9L100.4,1006.9z"/>
	</g>
</g>
</svg>
