<?xml version="1.0" encoding="utf-8"?>
<!-- Generator: Adobe Illustrator 19.0.0, SVG Export Plug-In . SVG Version: 6.00 Build 0)  -->
<svg version="1.1" id="Capa_1" xmlns="http://www.w3.org/2000/svg" xmlns:xlink="http://www.w3.org/1999/xlink" x="0px" y="0px"
	 viewBox="0 0 200 200" style="enable-background:new 0 0 200 200;" xml:space="preserve">
<style type="text/css">
	.st0{fill:none;stroke:#FFFFFF;stroke-width:5;stroke-miterlimit:10;}
	.st1{fill:#FFFFFF;}
</style>
<circle id="XMLID_1453_" class="st0" cx="99.6" cy="100" r="78.4"/>
<g id="XMLID_1432_">
	<g id="XMLID_95_">
		<path id="XMLID_105_" class="st1" d="M99.7,67.4c9,0,16.2,7.3,16.2,16.4c0,9-7.3,16.2-16.2,16.2c-9.2,0-16.4-7.3-16.4-16.2
			C83.3,74.7,90.6,67.4,99.7,67.4z M99.7,70.9c-7.3,0-13,5.7-13,13c0,7.1,5.7,12.8,13,12.8c7.1,0,12.8-5.7,12.8-12.8
			C112.5,76.6,106.8,70.9,99.7,70.9z"/>
		<path id="XMLID_104_" class="st1" d="M78.7,125.1c0,0.9-0.9,1.6-1.9,1.4c-0.9,0-1.6-0.9-1.4-1.9c1.4-12.3,11.7-21.8,24.4-21.8
			c12.4,0,23,9.5,24.4,21.8c0,1-0.7,1.9-1.6,1.9c-1,0.2-1.9-0.5-1.9-1.4c-1.2-10.7-10.2-18.8-20.9-18.8S79.9,114.4,78.7,125.1z"/>
		<path id="XMLID_101_" class="st1" d="M131.7,81.4c7.1,0,12.8,5.7,12.8,12.6c0,7.1-5.7,12.8-12.8,12.8c-6.9,0-12.6-5.7-12.6-12.8
			C119.1,87.1,124.8,81.4,131.7,81.4z M131.7,84.9c-5,0-9.2,4.1-9.2,9.2c0,5.2,4.1,9.3,9.2,9.3c5.2,0,9.3-4.1,9.3-9.3
			C141,89,136.9,84.9,131.7,84.9z"/>
		<path id="XMLID_100_" class="st1" d="M124.8,113.7c-0.9,0.5-1.9,0.2-2.4-0.7c-0.3-0.9,0-1.9,0.9-2.4c2.6-1.2,5.5-2.1,8.5-2.1
			c9.3,0,17.3,6.9,18.7,16.1c0.2,0.9-0.5,1.9-1.4,1.9c-1,0.2-1.9-0.5-2.1-1.4c-1-7.6-7.6-13.1-15.2-13.1
			C129.3,112,126.8,112.7,124.8,113.7z"/>
		<path id="XMLID_97_" class="st1" d="M67.6,81.4c6.9,0,12.6,5.7,12.6,12.6c0,7.1-5.7,12.8-12.6,12.8c-7.1,0-12.8-5.7-12.8-12.8
			C54.8,87.1,60.5,81.4,67.6,81.4z M67.6,84.9c-5.2,0-9.3,4.1-9.3,9.2c0,5.2,4.1,9.3,9.3,9.3c5,0,9.2-4.1,9.2-9.3
			C76.8,89,72.6,84.9,67.6,84.9z"/>
		<path id="XMLID_96_" class="st1" d="M52.4,125.1c-0.2,0.9-1,1.6-1.9,1.4c-1,0-1.7-1-1.6-1.9c1.4-9.2,9.3-16.1,18.7-16.1
			c2.9,0,5.9,0.9,8.6,2.1c0.7,0.5,1,1.6,0.7,2.4c-0.5,0.9-1.6,1.2-2.4,0.7c-2.1-1-4.5-1.7-6.9-1.7C60,112,53.4,117.5,52.4,125.1z"/>
	</g>
</g>
</svg>
