<?xml version="1.0" encoding="utf-8"?>
<!-- Generator: Adobe Illustrator 19.0.0, SVG Export Plug-In . SVG Version: 6.00 Build 0)  -->
<svg version="1.1" id="Capa_1" xmlns="http://www.w3.org/2000/svg" xmlns:xlink="http://www.w3.org/1999/xlink" x="0px" y="0px"
	 viewBox="0 0 200 200" style="enable-background:new 0 0 200 200;" xml:space="preserve">
<style type="text/css">
	.st0{fill:none;stroke:#FFFFFF;stroke-width:5;stroke-miterlimit:10;}
	.st1{fill:#FFFFFF;}
</style>
<circle id="XMLID_809_" class="st0" cx="100.2" cy="100" r="78.4"/>
<g id="XMLID_801_">
	<path id="XMLID_813_" class="st1" d="M58.2,67.9v46.1h84V67.9H58.2z M139.5,81.3c-5.6-0.6-10.1-5.1-10.8-10.8h10.8V81.3z
		 M139.5,97.7c-7.1,0.6-12.9,6.4-13.5,13.5H74.4c-0.7-7.1-6.4-12.9-13.5-13.5V84.1c7.1-0.6,12.9-6.4,13.5-13.5H126
		c0.6,7.1,6.4,12.9,13.5,13.5V97.7z M71.7,70.6c-0.6,5.6-5.1,10.1-10.8,10.8V70.6H71.7z M60.9,100.5c5.6,0.6,10.1,5.1,10.8,10.8
		H60.9V100.5z M128.8,111.2c0.6-5.6,5.1-10.1,10.8-10.8v10.8H128.8z"/>
	<polygon id="XMLID_790_" class="st1" points="139.5,120.7 60.9,120.7 60.9,116.6 58.2,116.6 58.2,123.4 142.2,123.4 142.2,116.6 
		139.5,116.6 	"/>
	<polygon id="XMLID_777_" class="st1" points="139.5,130.2 60.9,130.2 60.9,126.1 58.2,126.1 58.2,132.9 142.2,132.9 142.2,126.1 
		139.5,126.1 	"/>
	<path id="XMLID_770_" class="st1" d="M100.2,84.1c1.5,0,2.7,1.2,2.7,2.7h2.7c0-2.5-1.7-4.6-4.1-5.2V80h-2.7v1.6
		c-2.3,0.6-4.1,2.7-4.1,5.2c0,3,2.4,5.4,5.4,5.4c1.5,0,2.7,1.2,2.7,2.7c0,1.5-1.2,2.7-2.7,2.7c-1.5,0-2.7-1.2-2.7-2.7h-2.7
		c0,2.5,1.7,4.6,4.1,5.2v1.6h2.7v-1.6c2.3-0.6,4.1-2.7,4.1-5.2c0-3-2.4-5.4-5.4-5.4c-1.5,0-2.7-1.2-2.7-2.7
		C97.5,85.3,98.7,84.1,100.2,84.1z"/>
	<path id="XMLID_806_" class="st1" d="M100.2,74.6c-7.5,0-13.5,7.3-13.5,16.3s6.1,16.3,13.5,16.3s13.5-7.3,13.5-16.3
		S107.7,74.6,100.2,74.6z M100.2,104.4c-6,0-10.8-6.1-10.8-13.5c0-7.5,4.9-13.5,10.8-13.5c6,0,10.8,6.1,10.8,13.5
		S106.2,104.4,100.2,104.4z"/>
	<rect id="XMLID_523_" x="117.8" y="89.5" class="st1" width="2.7" height="2.7"/>
	<rect id="XMLID_71_" x="79.9" y="89.5" class="st1" width="2.7" height="2.7"/>
</g>
</svg>
