<?xml version="1.0" encoding="utf-8"?>
<!-- Generator: Adobe Illustrator 19.0.0, SVG Export Plug-In . SVG Version: 6.00 Build 0)  -->
<svg version="1.1" id="Capa_1" xmlns="http://www.w3.org/2000/svg" xmlns:xlink="http://www.w3.org/1999/xlink" x="0px" y="0px"
	 viewBox="0 0 200 200" style="enable-background:new 0 0 200 200;" xml:space="preserve">
<style type="text/css">
	.st0{fill:none;stroke:#FFFFFF;stroke-width:5;stroke-miterlimit:10;}
	.st1{fill:#FFFFFF;}
</style>
<circle id="XMLID_821_" class="st0" cx="99.8" cy="100" r="78.4"/>
<g id="XMLID_841_">
	<g id="XMLID_59_">
		<g id="XMLID_64_">
			<path id="XMLID_65_" class="st1" d="M133,62.4c-4.8,0-8.6,3.8-8.6,8.6c0,4.2,3,7.6,6.9,8.4v55.2h3.4V79.5
				c3.9-0.8,6.9-4.3,6.9-8.4C141.6,66.3,137.7,62.4,133,62.4z"/>
		</g>
		<g id="XMLID_62_">
			<path id="XMLID_63_" class="st1" d="M72.8,124.5V69.3h-3.4v55.2c-3.9,0.8-6.9,4.3-6.9,8.4c0,4.7,3.9,8.6,8.6,8.6
				c4.8,0,8.6-3.9,8.6-8.6C79.6,128.8,76.7,125.3,72.8,124.5z"/>
		</g>
		<g id="XMLID_60_">
			<path id="XMLID_61_" class="st1" d="M103.7,93.7V69.3h-3.4v24.4c-3.9,0.8-6.9,4.3-6.9,8.4c0,4.2,3,7.6,6.9,8.4v24.1h3.4v-24.1
				c3.9-0.8,6.9-4.3,6.9-8.4C110.6,98,107.6,94.5,103.7,93.7z"/>
		</g>
	</g>
</g>
</svg>
