<?xml version="1.0" encoding="utf-8"?>
<!-- Generator: Adobe Illustrator 19.0.0, SVG Export Plug-In . SVG Version: 6.00 Build 0)  -->
<svg version="1.1" id="Capa_1" xmlns="http://www.w3.org/2000/svg" xmlns:xlink="http://www.w3.org/1999/xlink" x="0px" y="0px"
	 viewBox="0 0 200 200" style="enable-background:new 0 0 200 200;" xml:space="preserve">
<style type="text/css">
	.st0{fill:none;stroke:#FFFFFF;stroke-width:5;stroke-miterlimit:10;}
	.st1{fill:#FFFFFF;}
</style>
<circle id="XMLID_827_" class="st0" cx="99.5" cy="100" r="78.4"/>
<g id="XMLID_807_">
	<path id="XMLID_808_" class="st1" d="M93.5,106.5c-3.3-3.3-3.3-8.8,0.1-12.1c3.3-3.3,8.8-3.3,12.1,0.1c3.3,3.3,3.3,8.8-0.1,12.1
		C102.1,109.8,96.8,109.8,93.5,106.5z M90,90.9c-5.4,5.3-5.4,13.8-0.1,19.1s13.8,5.4,19.2,0.1c5.3-5.3,5.4-13.8,0.1-19.2
		C103.9,85.6,95.3,85.6,90,90.9z M108.8,81.3c-0.2,0-0.4,0-0.6,0h-2.1V70.8c0-4.1,3.3-7.3,7.3-7.3h2.2c0.6-2.4,2.8-4.2,5.4-4.2
		c3.1,0,5.6,2.5,5.6,5.6c0,3.1-2.5,5.6-5.6,5.6c-2.6,0-4.8-1.8-5.4-4.2h-2.3c-2.6,0-4.7,2.1-4.7,4.7L108.8,81.3L108.8,81.3z
		 M118.1,64.7c0,1.6,1.3,2.9,2.9,2.9s2.9-1.3,2.9-2.9c0-1.6-1.3-2.9-2.9-2.9S118.1,63.2,118.1,64.7z M98.1,75.7v-5.4
		c-2.4-0.6-4.2-2.8-4.2-5.4c0-3.1,2.5-5.6,5.6-5.6s5.6,2.5,5.6,5.6c0,2.6-1.8,4.8-4.2,5.4v5.4H98.1z M99.5,67.7
		c1.6,0,2.9-1.3,2.9-2.9c0-1.6-1.3-2.9-2.9-2.9s-2.9,1.3-2.9,2.9C96.6,66.4,97.9,67.7,99.5,67.7z M93.1,70.8v10.5h-1.7
		c-0.3,0-0.6,0-0.9,0.1V70.8c0-2.6-2.1-4.7-4.7-4.7h-2.2c-0.6,2.4-2.8,4.2-5.4,4.2c-3.1,0-5.6-2.5-5.6-5.6c0-3.1,2.5-5.6,5.6-5.6
		c2.6,0,4.8,1.8,5.4,4.2h2.2C89.8,63.4,93.1,66.7,93.1,70.8z M81,64.7c0-1.6-1.3-2.9-2.9-2.9c-1.6,0-2.9,1.3-2.9,2.9
		c0,1.6,1.3,2.9,2.9,2.9C79.7,67.7,81,66.4,81,64.7z M91,119.7h2.1v10.5c0,4.1-3.3,7.3-7.3,7.3h-2.2c-0.6,2.4-2.8,4.2-5.4,4.2
		c-3.1,0-5.6-2.5-5.6-5.6s2.5-5.6,5.6-5.6c2.6,0,4.8,1.8,5.4,4.2h2.2c2.6,0,4.7-2.1,4.7-4.7v-10.5C90.5,119.6,90.7,119.7,91,119.7z
		 M81,136.2c0-1.6-1.3-2.9-2.9-2.9c-1.6,0-2.9,1.3-2.9,2.9c0,1.6,1.3,2.9,2.9,2.9C79.7,139.1,81,137.8,81,136.2z M105.1,136.2
		c0,3.1-2.5,5.6-5.6,5.6s-5.6-2.5-5.6-5.6c0-2.6,1.8-4.8,4.2-5.4v-5.4h2.7v5.4C103.3,131.3,105.1,133.5,105.1,136.2z M102.5,136.2
		c0-1.6-1.3-2.9-2.9-2.9s-2.9,1.3-2.9,2.9c0,1.6,1.3,2.9,2.9,2.9S102.5,137.8,102.5,136.2z M126.6,136.2c0,3.1-2.5,5.6-5.6,5.6
		c-2.6,0-4.8-1.8-5.4-4.2h-2.2c-4.1,0-7.3-3.3-7.3-7.3v-10.5h1.7c0.3,0,0.6,0,0.9-0.1v10.6c0,2.6,2.1,4.7,4.7,4.7h2.2
		c0.6-2.4,2.8-4.2,5.4-4.2C124.1,130.5,126.6,133.1,126.6,136.2z M124,136.2c0-1.6-1.3-2.9-2.9-2.9s-2.9,1.3-2.9,2.9
		c0,1.6,1.3,2.9,2.9,2.9S124,137.8,124,136.2z M80.3,94H69.8c-4.1,0-7.3-3.3-7.3-7.3v-2.2c-2.4-0.6-4.2-2.8-4.2-5.4
		c0-3.1,2.5-5.6,5.6-5.6c3.1,0,5.6,2.5,5.6,5.6c0,2.6-1.8,4.8-4.2,5.4v2.2c0,2.6,2.1,4.7,4.7,4.7h10.5c0,0.2,0,0.4,0,0.6V94H80.3z
		 M66.7,79c0-1.6-1.3-2.9-2.9-2.9c-1.6,0-2.9,1.3-2.9,2.9c0,1.6,1.3,2.9,2.9,2.9C65.4,81.9,66.7,80.6,66.7,79z M69.3,99.2h5.4v2.7
		h-5.4c-0.6,2.4-2.8,4.2-5.4,4.2c-3.1,0-5.6-2.5-5.6-5.6c0-3.1,2.5-5.6,5.6-5.6C66.5,94.8,68.7,96.7,69.3,99.2z M66.7,100.5
		c0-1.6-1.3-2.9-2.9-2.9c-1.6,0-2.8,1.3-2.8,2.9c0,1.6,1.3,2.9,2.9,2.9C65.5,103.4,66.7,102.1,66.7,100.5z M65.2,114.3v2.2
		c2.4,0.6,4.2,2.8,4.2,5.4c0,3.1-2.5,5.6-5.6,5.6c-3.1,0-5.6-2.5-5.6-5.6c0-2.6,1.8-4.8,4.2-5.4v-2.2c0-4.1,3.3-7.3,7.3-7.3h10.5
		v1.7c0,0.3,0,0.6,0.1,0.9H69.8C67.2,109.7,65.2,111.8,65.2,114.3z M63.8,119c-1.6,0-2.9,1.3-2.9,2.9s1.3,2.9,2.9,2.9
		c1.6,0,2.9-1.3,2.9-2.9S65.4,119,63.8,119z M140.9,122c0,3.1-2.5,5.6-5.6,5.6s-5.6-2.5-5.6-5.6c0-2.6,1.8-4.8,4.2-5.4v-2.2
		c0-2.6-2.1-4.7-4.7-4.7h-10.5c0-0.2,0-0.4,0-0.6v-2.1h10.5c4.1,0,7.3,3.3,7.3,7.3v2.2C139,117.1,140.9,119.3,140.9,122z M138.1,122
		c0-1.6-1.3-2.9-2.9-2.9c-1.6,0-2.8,1.3-2.8,2.9s1.3,2.9,2.9,2.9S138.1,123.6,138.1,122z M140.9,100.5c0,3.1-2.5,5.6-5.6,5.6
		c-2.6,0-4.8-1.8-5.4-4.2h-5.4v-2.7h5.4c0.6-2.4,2.8-4.2,5.4-4.2C138.3,94.8,140.9,97.4,140.9,100.5z M138.1,100.5
		c0-1.6-1.3-2.9-2.9-2.9c-1.6,0-2.8,1.3-2.8,2.9c0,1.6,1.3,2.9,2.9,2.9S138.1,102.1,138.1,100.5z M140.9,79c0,2.6-1.8,4.8-4.2,5.4
		v2.2c0,4.1-3.3,7.3-7.3,7.3h-10.5v-1.7c0-0.3,0-0.6-0.1-0.9h10.6c2.6,0,4.7-2.1,4.7-4.7v-2.2c-2.4-0.6-4.2-2.8-4.2-5.4
		c0-3.1,2.5-5.6,5.6-5.6C138.3,73.4,140.9,75.9,140.9,79z M138.1,79c0-1.6-1.3-2.9-2.9-2.9c-1.6,0-2.8,1.3-2.8,2.9
		c0,1.6,1.3,2.9,2.9,2.9S138.1,80.6,138.1,79z"/>
</g>
</svg>
