<?xml version="1.0" encoding="utf-8"?>
<!-- Generator: Adobe Illustrator 19.0.0, SVG Export Plug-In . SVG Version: 6.00 Build 0)  -->
<svg version="1.1" id="Capa_1" xmlns="http://www.w3.org/2000/svg" xmlns:xlink="http://www.w3.org/1999/xlink" x="0px" y="0px"
	 viewBox="0 0 200 200" style="enable-background:new 0 0 200 200;" xml:space="preserve">
<style type="text/css">
	.st0{fill:none;stroke:#FFFFFF;stroke-width:5;stroke-miterlimit:10;}
	.st1{fill:#FFFFFF;}
</style>
<circle id="XMLID_791_" class="st0" cx="99.9" cy="100" r="78.4"/>
<path id="XMLID_522_" class="st1" d="M72.2,67.7L67,72.9c-1.9,1.9-1.9,5.2,0,7.1l3,3c-1.6,2.9-2.9,5.8-3.7,9h-4.1c-2.7,0-5,2.3-5,5
	v7.2c0,2.7,2.3,5,5,5h4.1c0.8,3.1,2,6.1,3.7,9l-3,3c-1.9,1.9-1.9,5.2,0,7.1l5.2,5.2c1.9,1.9,5.2,1.9,7.1,0l3-3.1
	c2.9,1.6,5.8,2.9,9,3.7v4.1c0,2.7,2.3,5,5,5h7.2c2.7,0,5-2.3,5-5v-4.1c3.1-0.8,6.1-2,9-3.7l3,3c1.9,1.9,5.2,1.9,7.1,0l5.2-5.2
	c1.9-1.9,1.9-5.2,0-7.1l-2.9-3c1.6-2.9,2.9-5.8,3.7-9h4.1c2.7,0,5-2.3,5-5v-7.2c0-2.7-2.3-5-5-5h-4.1c-0.8-3.1-2-6.1-3.7-9l3-3
	c1.9-1.9,1.9-5.2,0-7.1l-5.3-5c-1.9-1.9-5.2-1.9-7.1,0l-2.9,2.9c-2.9-1.6-5.8-2.9-9-3.7v-4.1c0-2.7-2.3-5-5-5h-7.2c-2.7,0-5,2.3-5,5
	v4.1c-3.1,0.8-6.1,2-9,3.7l-3-2.9C77.5,65.8,74.2,65.8,72.2,67.7z M80.3,75.3c0.8,0.8,2,1,3,0.3c3.3-2.2,6.9-3.7,10.7-4.5
	c1.1-0.3,1.9-1.2,1.9-2.3v-6.1c0-0.1,0.1-0.3,0.3-0.3h7.2c0.1,0,0.3,0.1,0.3,0.3v6c0,1.1,0.8,2.2,1.9,2.3c3.9,0.8,7.5,2.3,10.7,4.5
	c1,0.7,2.2,0.5,3-0.3l4.2-4.2c0.1-0.1,0.3-0.1,0.4,0l5.2,5.2c0.1,0.1,0.1,0.3,0,0.4l-4.2,4.2c-0.8,0.8-1,2-0.3,3
	c2.2,3.3,3.7,6.9,4.5,10.7c0.3,1.1,1.2,1.9,2.3,1.9h6c0.1,0,0.3,0.1,0.3,0.3v7.2c0,0.1-0.1,0.3-0.3,0.3h-6c-1.1,0-2.2,0.8-2.3,1.9
	c-0.8,3.8-2.3,7.5-4.5,10.7c-0.7,1-0.5,2.2,0.3,3l4.2,4.2c0.1,0.1,0.1,0.3,0,0.4l-5.2,5.2c-0.1,0.1-0.3,0.1-0.4,0l-4.2-4.2
	c-0.8-0.8-2-1-3-0.3c-3.3,2.2-6.9,3.7-10.7,4.5c-1.1,0.3-1.9,1.2-1.9,2.3v6c0,0.1-0.1,0.3-0.3,0.3h-7.2c-0.1,0-0.3-0.1-0.3-0.3v-6
	c0-1.1-0.8-2.2-1.9-2.3c-3.8-0.8-7.5-2.3-10.7-4.5c-0.4-0.3-0.8-0.4-1.4-0.4c-0.7,0-1.2,0.3-1.6,0.7l-4.2,4.2
	c-0.1,0.1-0.3,0.1-0.4,0l-5.2-5.2c-0.1-0.1-0.1-0.3,0-0.4l4.2-4.2c0.8-0.8,1-2,0.3-3c-2.2-3.3-3.7-6.9-4.5-10.7
	c-0.3-1.1-1.2-1.9-2.3-1.9h-6c-0.1,0-0.3-0.1-0.3-0.3v-7.2c0-0.1,0.1-0.3,0.3-0.3h6c1.1,0,2.2-0.8,2.3-1.9c0.8-3.9,2.3-7.5,4.5-10.7
	c0.7-1,0.5-2.2-0.3-3l-4.2-4.2c-0.1-0.1-0.1-0.3,0-0.4l5.2-5.2c0.1-0.1,0.3-0.1,0.4,0L80.3,75.3z M99.9,118.3
	c9.8,0,17.8-8,17.8-17.8s-8-17.9-17.8-17.9s-17.8,8-17.8,17.8S90.1,118.3,99.9,118.3z M99.9,87.3c7.2,0,13,5.8,13,13
	c0,7.2-5.8,13-13,13s-13-5.8-13-13C86.9,93.1,92.7,87.3,99.9,87.3z"/>
</svg>
