<?xml version="1.0" encoding="utf-8"?>
<!-- Generator: Adobe Illustrator 19.0.0, SVG Export Plug-In . SVG Version: 6.00 Build 0)  -->
<svg version="1.1" id="Capa_1" xmlns="http://www.w3.org/2000/svg" xmlns:xlink="http://www.w3.org/1999/xlink" x="0px" y="0px"
	 viewBox="0 0 200 200" style="enable-background:new 0 0 200 200;" xml:space="preserve">
<style type="text/css">
	.st0{fill:none;stroke:#FFFFFF;stroke-width:5;stroke-miterlimit:10;}
	.st1{fill:#FFFFFF;}
</style>
<circle id="XMLID_79_" class="st0" cx="100.3" cy="99.4" r="65"/>
<g id="XMLID_532_">
	<path id="XMLID_2_" class="st1" d="M100.9,103.6h-1.2c-1.7,0-3.1,1.4-3.1,3.1v8.6c0,1.7,1.4,3.1,3.1,3.1h1.2c1.7,0,3.1-1.4,3.1-3.1
		v-8.6C104,105,102.6,103.6,100.9,103.6z M100.9,103.6h-1.2c-1.7,0-3.1,1.4-3.1,3.1v8.6c0,1.7,1.4,3.1,3.1,3.1h1.2
		c1.7,0,3.1-1.4,3.1-3.1v-8.6C104,105,102.6,103.6,100.9,103.6z M100.9,103.6h-1.2c-1.7,0-3.1,1.4-3.1,3.1v8.6
		c0,1.7,1.4,3.1,3.1,3.1h1.2c1.7,0,3.1-1.4,3.1-3.1v-8.6C104,105,102.6,103.6,100.9,103.6z M100.9,103.6h-1.2
		c-1.7,0-3.1,1.4-3.1,3.1v8.6c0,1.7,1.4,3.1,3.1,3.1h1.2c1.7,0,3.1-1.4,3.1-3.1v-8.6C104,105,102.6,103.6,100.9,103.6z M100.9,103.6
		h-1.2c-1.7,0-3.1,1.4-3.1,3.1v8.6c0,1.7,1.4,3.1,3.1,3.1h1.2c1.7,0,3.1-1.4,3.1-3.1v-8.6C104,105,102.6,103.6,100.9,103.6z
		 M100.9,103.6h-1.2c-1.7,0-3.1,1.4-3.1,3.1v8.6c0,1.7,1.4,3.1,3.1,3.1h1.2c1.7,0,3.1-1.4,3.1-3.1v-8.6
		C104,105,102.6,103.6,100.9,103.6z M122.7,90.6h-3.2l0-2.5c0-0.2,0-0.5,0-0.7c0-10.6-8.6-19.2-19.1-19.2
		c-10.6,0-19.2,8.6-19.2,19.2l0,3.2h-3.2c-2.3,0-4.2,1.9-4.2,4.2v32.3c0,2.3,1.9,4.2,4.2,4.2h44.7c1.1,0,2.2-0.4,3-1.2
		c0.8-0.8,1.2-1.9,1.2-3V94.8C126.9,92.5,125,90.6,122.7,90.6z M84.7,85.3h0.2c1-7.7,7.6-13.7,15.6-13.7c8.7,0,15.7,7,15.7,15.7
		c0,0.5,0,0.8-0.1,1.2v1.9l-2,0.1H84.7V85.3z M123.5,123.4c0,2.5-2,4.5-4.5,4.5H81.6c-2.5,0-4.5-2-4.5-4.5V98.5c0-2.5,2-4.5,4.5-4.5
		H119c2.5,0,4.5,2,4.5,4.5V123.4z M100.9,103.6h-1.2c-1.7,0-3.1,1.4-3.1,3.1v8.6c0,1.7,1.4,3.1,3.1,3.1h1.2c1.7,0,3.1-1.4,3.1-3.1
		v-8.6C104,105,102.6,103.6,100.9,103.6z M100.9,103.6h-1.2c-1.7,0-3.1,1.4-3.1,3.1v8.6c0,1.7,1.4,3.1,3.1,3.1h1.2
		c1.7,0,3.1-1.4,3.1-3.1v-8.6C104,105,102.6,103.6,100.9,103.6z M100.9,103.6h-1.2c-1.7,0-3.1,1.4-3.1,3.1v8.6
		c0,1.7,1.4,3.1,3.1,3.1h1.2c1.7,0,3.1-1.4,3.1-3.1v-8.6C104,105,102.6,103.6,100.9,103.6z M100.9,103.6h-1.2
		c-1.7,0-3.1,1.4-3.1,3.1v8.6c0,1.7,1.4,3.1,3.1,3.1h1.2c1.7,0,3.1-1.4,3.1-3.1v-8.6C104,105,102.6,103.6,100.9,103.6z M100.9,103.6
		h-1.2c-1.7,0-3.1,1.4-3.1,3.1v8.6c0,1.7,1.4,3.1,3.1,3.1h1.2c1.7,0,3.1-1.4,3.1-3.1v-8.6C104,105,102.6,103.6,100.9,103.6z"/>
</g>
</svg>
