<svg xmlns="http://www.w3.org/2000/svg" width="34.754" height="23.459" viewBox="0 0 34.754 23.459">
  <path id="Icon_zocial-email" data-name="Icon zocial-email" d="M.072,25.45V6.146q0-.034.1-.637l11.361,9.719L.206,26.12a2.84,2.84,0,0,1-.134-.67ZM1.58,4.169a1.444,1.444,0,0,1,.57-.1h30.6a1.9,1.9,0,0,1,.6.1L21.956,13.921l-1.508,1.206-2.983,2.446-2.983-2.446-1.508-1.206Zm.034,23.258L13.042,16.468l4.424,3.586,4.424-3.586L33.317,27.427a1.609,1.609,0,0,1-.57.1H2.15a1.518,1.518,0,0,1-.536-.1ZM23.4,15.228,34.725,5.509a2,2,0,0,1,.1.637v19.3a2.569,2.569,0,0,1-.1.67Z" transform="translate(-0.072 -4.068)" fill="#fff"/>
</svg>
