<svg xmlns="http://www.w3.org/2000/svg" width="28.691" height="28.691" viewBox="0 0 28.691 28.691">
  <path id="Icon_awesome-phone-alt" data-name="Icon awesome-phone-alt" d="M27.873,20.275,21.6,17.585a1.345,1.345,0,0,0-1.569.387l-2.779,3.4a20.771,20.771,0,0,1-9.929-9.929l3.4-2.779A1.342,1.342,0,0,0,11.1,7.089L8.411.813A1.354,1.354,0,0,0,6.87.034L1.042,1.379A1.345,1.345,0,0,0,0,2.69a26,26,0,0,0,26,26,1.345,1.345,0,0,0,1.311-1.042l1.345-5.828a1.361,1.361,0,0,0-.785-1.547Z" transform="translate(0 0)" fill="#fff"/>
</svg>
